<?xml version="1.0" standalone="no"?><!DOCTYPE svg PUBLIC "-//W3C//DTD SVG 1.1//EN" "http://www.w3.org/Graphics/SVG/1.1/DTD/svg11.dtd"><svg class="icon" width="200px" height="200.00px" viewBox="0 0 1024 1024" version="1.1" xmlns="http://www.w3.org/2000/svg">
  <path d="M510.361759 510.260611m-502.89846 0a502.89846 502.89846 0 1 0 1005.79692 0 502.89846 502.89846 0 1 0-1005.79692 0Z" fill="#FFFFFF" p-id="10359"></path>
  <path d="M0 512C0 229.2224 229.2224 0 512 0s512 229.2224 512 512-229.2224 512-512 512S0 794.7776 0 512z m239.6672-65.7408c5.632 1.7152 8.2688 5.9904 9.9328 12.672 2.176 8.448 5.4784 16.5632 9.856 24.1152 10.9568 19.6608 26.6496 35.3024 43.2896 49.792 53.504 46.592 115.5072 75.6736 183.0912 92.672 40.4224 10.112 81.0752 11.8272 121.7536-0.3328 63.7184-19.1232 114.2016-57.2928 153.6-111.616 5.8368-8.1152 11.136-16.6912 16.7168-25.088-3.7376 0.64-6.4512 2.2272-9.1648 3.456-2.816 1.3056-5.7088 2.4576-8.576 3.456-50.7648 17.28-102.2208 17.9712-153.9584 5.6832-43.2896-10.3168-80.0512-32.768-110.208-66.3296-2.4832-2.7392-5.0432-6.1696-5.76-9.6256-0.5632-2.8928 0.64-7.7568 2.7136-9.2416 1.9968-1.3824 6.5024-0.256 9.2672 1.152 2.6624 1.3312 4.4288 4.352 6.5536 6.5792 20.8384 21.8112 43.648 40.832 71.9872 51.3024 47.7184 17.6128 96.64 21.9648 146.4832 12.16 17.6896-3.456 35.1488-8.32 50.7648-17.6896 6.1696-3.712 13.2864-8.8064 16-15.1552 10.24-24.0128 20.736-48.384 23.552-74.7776 1.6896-15.5648 2.56-31.7696 0.256-47.104-3.3792-21.888-19.0208-35.2-37.6832-44.8512-34.56-17.8432-71.8592-23.04-109.696-23.936a864.5376 864.5376 0 0 0-87.6032 2.6368c-24.4992 1.792-48.8192 5.248-72.8576 10.2912-51.712 11.008-100.864 30.2592-148.6336 52.9664-30.464 14.4896-60.416 30.208-84.6848 54.9888-6.8864 7.0912-13.2864 14.848-19.9168 22.144-10.9056-6.4256-21.632-13.1584-32.6656-19.0976a123.52 123.52 0 0 0-21.7088-9.3952c-10.3168-3.1744-21.12 2.0736-25.856 12.2112-2.7136 5.8112-4.864 12.0832-6.4768 18.3296-8.7296 33.5872-19.3536 66.2784-36.8384 96.4352-7.0144 12.2112-11.52 26.2656-15.0272 40.0896-6.1696 24.2688 13.5936 44.288 37.2992 38.6048a155.7248 155.7248 0 0 0 55.808-26.496c22.016-16.2048 32.7168-38.3488 31.6672-66.1504-0.5376-15.0016-2.1248-29.952-3.2768-44.8512z m491.8272-165.9136c14.8736 0.0512 29.44 1.8688 43.0592 8.2944 5.4528 2.6368 11.5456 5.4272 11.8528 13.0816a16.3072 16.3072 0 0 1-10.88 16.2048c-9.3184 3.6864-19.0464 6.912-28.928 8.0896-19.2 2.2272-38.5536 3.6352-57.5232-1.7408a55.3472 55.3472 0 0 1-12.1856-4.864c-9.3696-5.4272-10.3168-15.616-1.8944-22.7072 9.4976-8.064 20.992-12.0832 32.9728-14.08 7.7568-1.2288 15.6672-1.536 23.5264-2.304z m-225.4848 90.112c-11.392-0.1024-20.1728-8.2432-20.1728-18.6112 0.0768-10.624 8.6272-18.688 20.0704-18.7648 10.9824-0.0768 20.2496 8.448 20.352 18.7648 0 10.368-8.8832 18.6112-20.2496 18.6112z m88.1152 448.256c0-59.4688 0-117.888-0.0512-176.384-4.8896 1.7664-9.3184 3.7632-13.8752 4.9664-20.992 5.6832-41.856 2.4832-62.6688-0.896-4.352-0.7168-6.656 0-8.96 4.1216-12.672 22.3744-25.472 44.7744-38.7584 66.816a20.6336 20.6336 0 0 1-10.3936 8.1408c-15.104 4.7104-28.5696-3.4304-33.0496-19.1488-0.8704-3.0464-1.536-6.1696-2.3552-9.2416a36.5312 36.5312 0 0 0-0.768 26.3168c4.9664 14.0544 16.5376 19.456 29.824 23.424-13.824 23.9104-27.2896 47.3088-40.8064 70.9376 11.4432 2.7136 13.7728 1.9712 20.4288-5.4784 10.5472-11.8016 21.12-23.68 32-35.0976 6.0672-6.1952 12.4928-12.032 19.2-17.4592 2.8928-2.304 6.656-3.5584 11.648-6.0672-0.8192 22.784-1.536 43.6736-2.3552 65.2544 3.9168 0 7.296-0.4096 10.4192 0.0768 5.5808 0.896 7.3472-1.792 8.8064-6.9888 3.456-12.6208 6.9632-25.216 11.8528-37.2224 3.3536-8.2176 8.1664-16.0256 13.5936-22.9376 5.6064-7.168 13.9264-6.1952 18.9184 1.4592 3.4048 5.0176 5.9904 10.5472 7.6544 16.384 4.0192 14.7456 7.1424 29.7984 10.8288 44.5952 0.384 1.7664 2.2272 4.1216 3.584 4.3008 4.9664 0.512 10.0096 0.1536 15.2832 0.1536z" fill="#e41f19" /></svg>