<?xml version="1.0" standalone="no"?><!DOCTYPE svg PUBLIC "-//W3C//DTD SVG 1.1//EN" "http://www.w3.org/Graphics/SVG/1.1/DTD/svg11.dtd"><svg class="icon" width="200px" height="200.00px" viewBox="0 0 1024 1024" version="1.1" xmlns="http://www.w3.org/2000/svg">
  <path d="M510.361759 510.260611m-502.89846 0a502.89846 502.89846 0 1 0 1005.79692 0 502.89846 502.89846 0 1 0-1005.79692 0Z" fill="#FFFFFF" p-id="10359"></path>
  <path d="M629.861 636.316c6.033 22.525 6.388 23.235 29.098 20.278 10.41-1.386 5.239-12.268 8.905-18.453-12.893 6.641-25.211 5.593-38.003-1.825z m37.868-60.73c-2.467-6.37 1.284-15.816-8.043-17.405-7.908-1.351-16.898-1.588-24.18 0.93-3.38 1.132-3.904 10.138-5.746 15.613l1.014 1.69c12.116-7.553 24.282-6.928 36.955-0.828zM580.131 722.68c7.96 0 15.935 0.338 23.843-0.185 2.856-0.186 8.956-1.521 5.07-6.067-4.681-5.424-11.457-9.006-17.253-13.518-2.281-1.69-4.14-4.258-6.658-5.441s-6.54-2.484-8.178-1.318c-7.723 5.56-14.92 11.828-22.153 18.08a27.915 27.915 0 0 0-3.836 5.29c2.062 1.047 4.072 2.872 6.185 2.974 7.604 0.337 15.309 0.202 22.98 0.185z m-31.057 57.605c0 5.863 2.686 8.448 8.448 8.347 14.55-0.118 29.098-0.152 43.647 0 6.185 0 9.007-2.467 8.939-8.77-0.152-15.09-0.22-30.196 0-45.303 0.084-5.474-2.062-7.266-7.317-7.063-7.671 0.287-15.377 0-23.065 0-7.959 0-15.935 0.17-23.876 0-4.85-0.135-6.962 1.521-6.895 6.624 0.288 15.478 0.203 30.855 0.119 46.165z" fill="#ED291E" /><path d="M618.59 606.374c1.015 17.286 11.373 29.47 30.687 30.314 16.78 0.727 29.993-12.69 30.078-30.18s-12.96-30.584-30.805-30.516c-16.509 0.033-30.94 13.754-29.96 30.382z m6.506-290.658a90.25 90.25 0 0 0 15.343 14.55c5.813 4.173 4.529 9.682 3.954 14.751-0.236 2.13-3.802 4.14-6.184 5.711-3.177 2.096-6.675 3.735-10.02 5.56l0.506 1.216h42.143a40.217 40.217 0 0 0-11.828-6.961c-7.807-3.38-8.618-13.519-1.893-19.01a117.236 117.236 0 0 0 15.512-14.279c12.555-14.65 8.872-31.092 4.512-47.702h-56.32a34.454 34.454 0 0 0-1.69 6.353c-0.743 13.688-4.241 27.865 5.965 39.811zM504.43 452.807a8.669 8.669 0 0 0-5.357-5.238c-7.097-1.571-12.234-4.748-14.43-12.082a29.47 29.47 0 0 0-3.566-6.1c-11.93 10.308-9.429 24.519-11.98 37.817h20.987l-6.033 14.313c2.552-0.609 3.768-0.845 4.951-1.183 21.021-6.134 21.14-6.168 15.428-27.527zM263.198 567.644a55.762 55.762 0 0 0-5.914 8.635c-5.83 11.828-11.135 23.809-17.219 35.485-1.3 2.484-4.85 4.174-7.722 5.34s-6.522 0.726-9.412 1.977c-9.8 4.224-21.967 4.309-29.334 16.17 4.697 2.468 8.635 5.712 13.062 6.642a122.407 122.407 0 0 0 26.343 3.16c14.43-0.186 17.912-4.63 21.122-18.233 2.197-9.31 3.21-19.585 13.13-26.073a21.697 21.697 0 0 1 1.504 4.545c0.642 11.423 1.318 22.846 1.69 34.269 0.118 4.36 0.777 7.063 6.877 4.697-0.828-18.047-1.504-35.772 7.401-52.01 4.731-8.619 1.436-16.273-3.008-23.573-5.272-8.567-12.572-8.855-18.52-1.03z m150.17 180.23c7.706-0.388 15.36-1.435 24.282-2.314-0.726 11.71-1.115 21.967-2.18 32.207-0.27 2.619-2.72 5.07-4.173 7.536-1.96-2.518-3.802-5.07-5.931-7.502-1.69-1.876-3.718-4.715-5.661-4.765a7.452 7.452 0 0 0-5.509 4.63c-1.436 6.336-0.287 12.842 5.17 16.897s11.948 5.83 19.045 2.586c6.59-3.008 10.46-7.131 10.138-14.854-0.32-9.597 0.254-19.212-0.186-28.726-0.304-6.488 2.586-8.567 8.297-7.57 4.174 0.727 8.263 3.092 12.352 2.991 8.348-0.203 16.645-1.571 24.806-2.45-7.333-26.479-24.417-42.244-45.387-43.697-26.513-1.69-52.282 13.974-57.452 45.252 7.536-0.136 14.937 0.084 22.39-0.22zM217.22 357.843c1.284 0.457 3.464-0.422 4.157 0.321 4.984 5.408 10.747 2.822 16.644 2.687 8.939-0.22 18.165 3.059 26.09-3.853 0.169-0.135 0.997 0.676 1.369 0.575 3.818-1.149 9.631-1.352 10.916-3.853a17.574 17.574 0 0 0 0.287-13.518c-3.6-8.043-8.99-15.208-13.518-22.913-3.38-5.678-5.729-11.186-2.991-18.351 1.69-4.444 0.895-9.919 0.946-14.938a32.63 32.63 0 0 0-0.879-8.905c-0.557-2.044-2.112-5.069-3.616-5.272s-5.508 1.876-5.56 3.093c-0.286 6.759-6.64 6.945-9.783 7.249s-6.759-4.09-9.97-6.54c-2.247-1.69-4.36-3.514-6.539-5.289l-3.278 2.011c0.608 11.744 1.318 23.471 1.69 35.215a12.403 12.403 0 0 1-1.944 5.813c-5.39 9.936-11.355 19.584-16.137 29.79-1.538 3.279-1.605 9.142 0.389 11.66 2.349 2.855 7.638 3.531 11.727 5.018z m-53.143 143.935h46.908c13.23-0.101 18.74-5.813 18.198-19.145a91.248 91.248 0 0 0-1.69-14.465c-2.483-12.149-2.433-25.802-17.725-30.77-1.572-0.507-2.873-2.873-3.633-4.664-5.66-13.518-21.325-19.855-30.737-9.463-8.162 9.007-18.435 16.29-24.924 26.682-6.32 10.138-5.441 21.78-5.374 33.17 0.119 12.943 5.796 18.604 18.977 18.655z m394.713-34.505c-0.186-7.537-1.183-15.04-1.944-23.454l-20.598 4.275-4.207 29.419c8.803-1.69 15.985-2.602 22.93-4.461 1.723-0.456 3.87-3.802 3.819-5.78zM428.745 588.394c0-11.152-2.771-13.518-13.738-14.312a20.615 20.615 0 0 1-11.828-5.07c-5.644-5.339-35.84-6.758-41.23-1.182-0.186 0.203-0.49 0.338-0.592 0.574-3.38 7.689-10.02 8.213-17.1 7.638s-9.733 2.771-9.615 9.733c0.27 15.648 0.236 31.295 0 46.942-0.085 6.59 2.484 9.48 9.192 9.361 12.352-0.22 24.705 0 37.057 0s24.704-0.135 37.056 0c7.537 0.119 10.883-3.244 10.798-10.763-0.118-14.363 0-28.642 0-42.92zM806.51 264.618c-17-0.777-21.764 2.636-21.291 15.68 15.19 1.319 20.04-2.382 21.29-15.68z" fill="#ED291E" /><path d="M512 0C229.268 0 0 229.2 0 512s229.2 512 512 512 512-229.2 512-512S794.732 0 512 0zM315.514 187.564L504.97 321.056 315.514 451.963z m-196.74 127.899c10.476-6.911 21.122-13.603 31.413-20.801 21.156-14.82 42.092-29.96 63.163-44.897q42.464-30.129 84.996-60.156a18.909 18.909 0 0 1 2.805-1.234v263.25c-10.832-7.841-20.97-15.107-31.025-22.474q-47.567-34.86-95.1-69.77c-18.672-13.637-37.496-27.037-56.252-40.555z m0 19.787c11.254 7.689 22.677 15.208 33.795 23.116 27.307 19.652 54.445 39.524 81.633 59.328 21.494 15.664 42.954 31.362 65.58 47.888-8.297 6.27-15.833 12.166-23.555 17.81q-66.189 48.294-132.495 96.402c-7.976 5.762-16.577 10.679-24.89 15.968z m182.495 405.545L118.774 607.303v-1.69l63.434-44.475 115.766-81.108c0.794-0.558 1.69-0.947 3.38-1.808z m14.076-263.148l180.535 131.65-180.535 131.7z m190.944 406.727h-1.69c-12.014-8.99-23.927-18.114-36.06-26.918q-59.142-42.903-118.554-85.603c-9.378-6.76-18.925-13.265-30.162-21.122l186.449-131.448z m-4.174-317.947c-1.048-5.204-2.281-8.617-2.315-12.03-0.152-11.83-0.135-23.657-0.102-35.824h-1.858a24.975 24.975 0 0 1 1.875-4.968v-8.449c-13.281 1.116-20.091-4.038-20.412-16.762l-2.822 0.49c-1.588 3.38-4.14 6.759-4.63 10.392-3.025 22.136-5.593 44.356-8.449 67.996l-40.25-28.354 25.009-7.672-3.904-31.497-12.927 10.848-11.946-39.895 25.786-4.19c-0.626-7.182-1.2-14.38-1.927-21.562-0.101-0.997-0.777-2.62-1.453-2.771-11.947-2.518-11.98-14.667-17.945-21.967-0.66-0.794-1.15-1.69-2.4-3.583 5.255-1.943 10.139-3.126 14.448-5.542a20.7 20.7 0 0 0 7.705-7.857c5.509-10.376 10.392-21.072 16.475-33.627l15.056 39.389c14.279 1.537 14.279 1.537 15.208 14.16l19.973-3.718-16.644-48.226 46.992 19.754-9.53 29.334c12.217 1.318 18.976-2.906 23.066-13.417 4.562-11.71 9.631-23.217 15.207-36.6l33.694 25.82-29.503 23.403c8.99 0 16.239-0.405 23.386 0.237a9.615 9.615 0 0 1 6.49 4.95c2.754 6.033 4.545 12.488 6.758 18.892-7.114 0.997-15.596-0.253-19.449 3.38s-3.802 12.403-5.509 18.891c-0.405 1.521-1.132 2.958-2.196 5.729 5.491 1.402 10.46 3.38 15.529 3.768 7.637 0.49 11.54 4.123 13.315 11.254 1.234 4.9 3.177 9.615 5.07 15.106-8.45 1.217-16.34 2.991-24.333 3.38-6.05 0.236-6.911 2.72-7.385 8.01-1.115 12.605-1.605 25.65-5.44 37.495-2.011 6.219-10.562 10.308-18.014 17.05l-11.338-64.025c-2.771 0-5.204 0.203-7.587 0-11.71-1.116-11.355-1.099-13.518 10.696-2.4 12.64-4.208 25.701-8.99 37.48-2.484 5.525-10.933 8.82-18.334 14.565zM620.956 810.11q-48.057 34.843-96.097 69.72c-1.892 1.369-3.582 3.025-5.373 4.545h-1.69V619.858l185.706 130.349z m88.646-68.926l-182.36-130.99 182.36-134.371z m0.676-288.46L516.95 321.732l193.327-134.793zM905.31 609.027L720.99 740.643V477.157c19.23 13.383 37.75 26.158 56.117 39.118 23.302 16.442 46.469 33.086 69.737 49.578q27.306 19.348 54.765 38.493a14.583 14.583 0 0 0 3.684 1.301z m0-13.198c-10.68-7.113-21.596-13.89-31.988-21.392-27.932-20.176-55.644-40.69-83.457-61.034-21.967-16.036-43.934-32.022-66.442-48.43 29.622-21.544 58.534-42.598 87.462-63.602q44.103-32.106 88.257-63.958c1.943-1.402 4.106-2.5 6.168-3.734z m-81.785-217.794q-46.807 33.795-93.647 67.59c-2.552 1.826-5.238 3.465-8.686 5.746V188.274c17.844 12.25 35.148 23.893 52.214 35.874 25.127 17.641 50.034 35.485 75.11 53.261 18.875 13.333 37.868 26.547 56.794 39.811v1.69q-40.96 29.453-81.853 59.058z" fill="#ED291E" /><path d="M766.445 279.319c4.563 1.69 10.325 0.203 15.546 0.152-1.2-4.343-1.69-9.04-3.751-12.944-5.475-10.341-15.428-6.184-24.637-7.249-0.017 10.51 4.867 17.033 12.842 20.04zM426.7 285.064c-9.935-5.07-20.277-9.26-30.973-13.924-3.16 7.908-6.37 13.4-14.82 13.147-7.79-0.237-10.73-4.934-12.723-13.197-9.43 4.038-17.844 7.367-26.023 11.237-11.524 5.458-11.44 5.627-4.14 16.441 1.792 2.653 3.515 5.357 5.272 8.026l4.681-2.23c0 15.208 0.186 29.706 0 44.204-0.135 7.047 2.704 9.801 9.716 9.683 15.073-0.27 30.163 0 45.252 0 11.508 0 12.674-1.132 12.707-12.521v-40.724c2.35 0.304 4.749 1.234 5.29 0.591 3.278-3.886 6.758-7.823 8.786-12.402 0.777-2.163-1.03-7.317-3.025-8.331z m358.941-2.99c-23.031-0.677-41.906 18.587-42.058 39.574a41.535 41.535 0 0 0 40.42 41.804c22.963 0.321 42.48-18.807 40.452-41.602 2.991-19.33-17.37-39.152-38.814-39.777zM891.167 459.11c0-4.393 1.944-10.138-0.152-12.876-3.937-5.07-9.547-1.994-13.349 1.69-2.839 2.788-4.63 6.624-6.1 8.804l-25.887-18.165v-17.625c-5.34 2.535-9.615 4.208-13.518 6.506-5.29 3.075-10.055 7.13-15.479 9.868-7.08 3.566-15.039 5.509-21.815 9.514-7.266 4.292-13.518 17.708-10.578 21.967 8.094 11.676 17.506 21.967 32.528 24.89a33.052 33.052 0 0 1 9.193 3.937c6.201 3.38 10.46 11.372 19.905 8.449 0-3.21-0.135-6.218 0-9.21 0.152-2.618-0.32-6.437 1.15-7.603 7.113-5.577 14.785-10.443 22.862-15.969 2.619 2.856 4.68 5.965 7.502 8.01 4.31 3.126 9.92 7.333 14.262 2.061 2.045-2.484-0.405-8.567-0.591-13.028-0.22-3.819 0.017-7.52 0.067-11.22zM761.36 552.977l-7.232 0.321v15.765h7.232z m26.31 15.85v-17.05c-9.446-2.467-9.328 3.092-9.53 9.463-0.22 7.097 2.5 9.412 9.53 7.587z m26.53-0.05v-15.124c-10.14-1.166-11.322 0.997-8.55 15.123z m16.39 27.813c-6.759-1.876-8.635-5.07-7.857-11.423s-2.518-9.328-9.159-9.26c-20.04 0.186-40.064 0.254-60.105 0-5.593-0.084-8.128 1.926-8.145 7.3 0 18.385-0.304 36.786 0.102 55.17 0.202 9.295 3.498 11.83 12.605 11.83 17.844 0 35.688-0.237 53.515 0.117 7.486 0.153 10.139-3.954 11.17-10.138a51.977 51.977 0 0 0 0-7.756 18.233 18.233 0 0 0 4.326-0.473c6.623-2.603 12.96-5.762 13.754-13.94 1.234-11.779-1.706-19.061-10.206-21.427z" fill="#ED291E" /></svg>